<?xml version="1.0" encoding="UTF-8" standalone="no"?>
<svg
   width="202"
   height="202"
   viewBox="0 0 202 202"
   version="1.1"
   preserveAspectRatio="xMidYMid"
   id="svg6"
   xmlns="http://www.w3.org/2000/svg"
   xmlns:svg="http://www.w3.org/2000/svg">
  <defs
     id="defs6" />
  <circle
     fill="#abc2ab"
     cx="100.53291"
     cy="103.34162"
     r="72.897652"
     id="circle2"
     style="stroke-width:2.17583" />
  <g
     id="g9"
     transform="matrix(0.99918595,0,0,1.232315,0.0826144,-36.060537)">
    <path
       d="m 137.90921,145.51978 c -1.29552,1.33743 -6.89592,5.5791 -7.78174,6.30761 l -4.05584,3.33561 c -0.53918,0.44344 -1.79016,-2.27763 -2.54037,-4.95949 -0.14976,-0.53539 -1.51423,-4.01501 -1.74557,-4.68373 L 98.327501,82.525737 c -0.0926,-0.133747 -0.1388,-0.300924 -0.1388,-0.50153 v -0.601865 c 0,-0.668724 0.16194,-1.203707 0.48582,-1.60495 0.37014,-0.468103 0.94855,-0.691305 1.735069,-0.702153 l 22.69693,-0.313 c 1.52677,-0.02105 3.28176,4.11173 3.74444,5.449178 l 15.44931,41.475893 44.51591,-44.605901 c 1.34181,-1.337448 2.75315,-1.979514 4.2336,-2.00617 l 8.6919,-0.1565 c 0.60144,-0.01085 0.31447,2.780085 -2.26496,5.954907 -0.8787,1.081517 -3.15729,3.841451 -3.89759,4.710797 z"
       fill="#000000"
       id="path3"
       style="fill:#003700;fill-opacity:1;stroke:#003700;stroke-width:2.89913;stroke-dasharray:none;stroke-opacity:1" />
    <g
       id="g8"
       transform="matrix(1,0,0,1.017753,-2.6001486,-1.3747254)">
      <path
         d="m 20.177743,137.32852 c -2.602044,0 -4.903847,-0.46836 -6.90541,-1.40509 -2.001584,-0.99527 -3.6779079,-2.34182 -5.0289695,-4.03965 -1.3510628,-1.69783 -2.3768644,-3.68837 -3.0774049,-5.97164 -0.7005404,-2.34184 -1.05081,-4.85931 -1.05081,-7.55242 0,-3.45419 0.5003911,-6.84984 1.501172,-10.18693 1.000781,-3.33711 2.3768632,-6.52785 4.1282467,-9.572233 1.8014027,-3.044377 3.9030447,-5.854568 6.3049287,-8.430572 2.451924,-2.576016 5.104008,-4.800753 7.956254,-6.67421 2.902285,-1.873456 5.95468,-3.337097 9.157185,-4.390925 3.202526,-1.112361 6.480102,-1.668542 9.832721,-1.668542 h 36.778859 c 2.652094,0 4.978919,0.46836 6.98051,1.405082 2.051601,0.936734 3.752927,2.254017 5.103991,3.951845 1.351064,1.639269 2.376871,3.600545 3.077407,5.883829 0.700562,2.283282 1.050848,4.771473 1.050848,7.464569 0,3.454205 -0.525418,6.879127 -1.576241,10.274777 -1.000802,3.3371 -2.4019,6.52785 -4.203306,9.57221 -1.801419,3.04437 -3.928095,5.88385 -6.380017,8.51841 -2.451921,2.57601 -5.129032,4.83001 -8.031308,6.76201 -2.902264,1.87347 -5.954667,3.36639 -9.157184,4.47876 -3.202504,1.05382 -6.43005,1.58072 -9.682613,1.58072 z m 45.185472,-35.91778 c 1.651304,-4.098192 2.476962,-7.171836 2.476962,-9.220932 0,-1.697829 -0.52543,-2.868744 -1.576265,-3.512744 -1.00079,-0.644002 -2.501956,-0.966002 -4.503523,-0.966002 H 51.55237 c -1.451132,0 -2.802196,0.23418 -4.053192,0.702541 -1.20095,0.409826 -2.326824,1.141649 -3.377647,2.195463 -1.050824,1.053828 -2.076618,2.45893 -3.077408,4.215304 -0.950731,1.756365 -1.926491,3.951821 -2.927281,6.58637 l -3.602855,9.57223 c -1.901483,4.97639 -2.852224,8.72331 -2.852224,11.24078 0,1.69782 0.42533,2.92727 1.275991,3.68836 0.850682,0.70254 2.076644,1.05382 3.677886,1.05382 h 10.283082 c 1.551224,0 2.977351,-0.26345 4.278369,-0.79035 1.30103,-0.58547 2.552014,-1.49293 3.752952,-2.72239 1.200937,-1.22945 2.351841,-2.86873 3.452699,-4.91783 1.100869,-2.04909 2.226744,-4.56656 3.377647,-7.55239 z"
         fill="#000000"
         id="path4"
         style="fill:#003700;fill-opacity:1;stroke-width:1.32064" />
      <path
         d="m 76.591021,152.636 c -0.422273,-0.006 -0.850322,-0.14028 -1.284157,-0.40418 -0.216912,-0.13199 -0.452858,-0.2964 -0.707875,-0.49336 L 50.376608,131.12289 c -0.658475,-0.56799 -0.682723,-0.84795 -0.07277,-0.83988 L 62.409,130.44319 c 0.445727,0.006 0.903578,0.15178 1.373566,0.43762 0.216936,0.13199 0.404984,0.27424 0.564255,0.42695 l 24.257557,20.61602 c 0.694615,0.58998 0.736945,0.88091 0.126989,0.87285 z"
         fill="#000000"
         id="path5"
         style="fill:#003700;fill-opacity:1;stroke:#003700;stroke-width:3.62912;stroke-dasharray:none;stroke-opacity:1" />
    </g>
  </g>
</svg>
