<?xml version="1.0" encoding="UTF-8" standalone="no"?>
<!-- Created with Inkscape (http://www.inkscape.org/) -->

<svg
   width="748"
   height="748"
   viewBox="0 0 197.90833 197.90834"
   version="1.1"
   id="svg5"
   xml:space="preserve"
   xmlns:xlink="http://www.w3.org/1999/xlink"
   xmlns="http://www.w3.org/2000/svg"
   xmlns:svg="http://www.w3.org/2000/svg"><defs
     id="defs2"><linearGradient
       id="linearGradient1047"><stop
         style="stop-color:#e6e6e6;stop-opacity:1;"
         offset="0"
         id="stop1043" /><stop
         style="stop-color:#001aff;stop-opacity:0.07999998;"
         offset="1"
         id="stop1045" /></linearGradient><linearGradient
       id="linearGradient7617"><stop
         style="stop-color:#e6e6e6;stop-opacity:1;"
         offset="0"
         id="stop7613" /><stop
         style="stop-color:#ff9f00;stop-opacity:0.08;"
         offset="1"
         id="stop7615" /></linearGradient><linearGradient
       xlink:href="#linearGradient7617"
       id="linearGradient7619"
       x1="42.700746"
       y1="411.06167"
       x2="726.45596"
       y2="411.06167"
       gradientUnits="userSpaceOnUse"
       gradientTransform="matrix(0.26458334,0,0,0.26458334,-0.529167,0)" /><linearGradient
       xlink:href="#linearGradient1047"
       id="linearGradient1049"
       x1="41.553405"
       y1="411.18509"
       x2="724.12098"
       y2="411.18509"
       gradientUnits="userSpaceOnUse" /></defs><circle
     style="fill:#ffffff;fill-opacity:1;stroke:#ffffff;stroke-width:0.529167;stroke-linecap:round;stroke-opacity:1"
     id="path10448"
     cx="154.80754"
     cy="60.874565"
     r="37.554623" /><circle
     style="fill:#ffffff;fill-opacity:1;stroke:#ffffff;stroke-width:0.529167;stroke-linecap:round;stroke-opacity:1"
     id="path926"
     cx="97.982643"
     cy="99.890579"
     r="94.113571" /><path
     style="fill:#171717;stroke:#171717;stroke-width:0.264583;stroke-dasharray:none;stroke-opacity:1"
     d="M 87.394729,3.3464137 C 72.272171,5.5118997 57.858275,10.074249 45.061392,18.556978 34.417702,25.612373 25.208267,34.567809 18.054296,45.161786 -27.316193,114.63537 26.899459,208.79893 114.00427,194.98069 c 40.3485,-6.08995 73.03709,-36.01559 79.29759,-79.6665 2.13965,-13.69713 1.38468,-26.401265 -2.13874,-39.200364 10.14559,-18.273295 6.98772,-25.330173 -1.39791,-39.400927 C 182.81529,25.05321 165.00278,21.084072 153.75905,20.934981 138.25974,8.6938747 115.95148,-0.7428034 87.394729,3.3464137 M 142.4575,22.756165 c 0,0 -11.0661,0.284177 -23.38161,16.133006 C 102.11976,35.104582 74.989953,38.601506 74.989953,38.601506 61.383756,35.685951 60.305885,33.542267 35.40228,35.745737 69.254929,2.6731607 112.64071,8.2727937 133.17625,16.330684 m -4.6577,36.088246 c 5.14532,-0.201023 9.31938,-5.254172 14.46591,-4.242647 7.92722,1.557987 8.88024,11.688997 14.23843,18.328599 6.6394,12.188619 14.82483,12.875221 20.26147,14.828247 5.37204,8.498255 8.48146,16.238577 9.66102,25.514391 1.55279,22.62221 -16.98413,56.81497 -35.64587,66.13435 -6.08028,3.03711 -17.22846,-2.03321 -17.85137,-9.29156 -0.53098,-6.16978 6.42499,-15.15897 9.08474,-20.55707 1.21799,-2.47227 3.84507,-6.38508 2.42751,-9.24318 -1.86025,-3.75074 -7.82199,-0.91924 -10.59422,-0.0943 -10.57003,3.14477 -24.14693,4.62643 -33.77245,10.02575 -6.362091,3.56809 -0.38692,7.81352 3.53532,10.17935 8.88625,5.35819 24.39755,8.89484 20.29001,21.78957 -4.37134,13.72326 -15.02253,14.5155 -27.548121,14.51429 C 73.598777,190.30372 51.096916,181.40016 34.193457,164.8575 21.62374,152.55603 14.15447,135.82161 10.978954,117.98684 11.730121,104.07876 8.921677,81.216977 13.526975,64.514168 20.245711,40.146133 53.659292,36.566426 72.831939,47.856122 91.590459,58.901978 79.82081,78.295 61.994726,79.997162 51.02507,81.04461 42.569409,71.529891 31.756629,70.674757 25.395864,70.171595 20.577967,70.895616 17.242342,76.609407 l 7.257144,-1.209524 c -2.366071,8.671803 -8.352247,20.252043 -1.209524,27.819067 l 7.257143,-27.819067 c 15.022768,4.84487 30.14323,18.145083 49.447151,3.745654 4.309171,-3.126861 8.018183,-8.895323 7.957583,-14.631369 -0.0741,-11.317277 -2.543752,-15.391234 -7.814255,-19.352382 9.324835,-0.400352 18.420215,-1.574074 27.819066,-1.161868 4.46241,0.19558 10.16169,2.488353 14.46578,0.782078 5.79253,-2.296765 8.36156,-9.9135 13.37141,-13.512922 8.29128,-5.958356 23.31599,-4.014289 32.639,-1.782596 13.73172,3.287365 34.58392,31.230148 15.56294,42.067361 -22.71485,12.941301 -30.27922,-43.505848 -50.56777,-25.050933 -1.96669,1.78816 -3.39151,3.767788 -4.90946,5.916024 m 0.35483,46.538175 c -20.20631,4.384175 -6.47727,12.293235 13.4702,7.965805 1.24564,8.41878 11.33897,17.48952 22.55452,11.39194 7.40963,-3.71887 5.71305,-14.75633 4.46518,-19.6208 5.11612,-2.592819 -1.44736,-8.378297 -4.99859,-7.879432 M 38.91001,123.30082 c -17.423683,5.83303 1.015242,11.07903 16.773849,7.17605 0.772759,6.80121 8.936974,19.04738 22.419343,11.59587 7.51475,-6.66119 7.362442,-11.88017 5.738689,-21.28538 3.749765,-0.84186 0.49247,-7.97411 -4.930234,-6.73913 -8.228832,1.28061 -24.246515,6.18211 -40.001647,9.25259 z"
     id="path2776" /><path
     style="fill:#171717;fill-opacity:1;stroke:#171717;stroke-width:0.529167;stroke-linecap:round;stroke-dasharray:none;stroke-opacity:1"
     d="M 115.84343,38.169846 C 108.37975,36.780474 93.288519,36.63944 80.808289,37.842432 l -5.763506,0.555553 -6.227075,-1.439619 C 59.638786,34.836318 57.887035,34.669768 47.661939,34.94694 c -4.908351,0.133054 -9.566825,0.33455 -10.352161,0.447773 l -1.427885,0.205856 2.291873,-2.618454 C 59.220218,8.9366469 91.598879,5.1189338 122.44659,12.724278 c 5.95695,1.420211 9.38332,2.192411 14.91925,6.238392 l 4.80807,3.497113 -3.84641,1.11085 c -1.92785,0.556766 -4.64514,1.937251 -6.43149,3.048954 -3.1961,1.989037 -9.80414,7.961355 -11.76892,10.636703 -0.58901,0.802013 -1.23156,1.44032 -1.42789,1.418457 -0.19633,-0.02185 -1.48143,-0.249065 -2.85577,-0.504901 z"
     id="path11119" /><path
     style="fill:#a8a8a8;stroke:#a8a8a8;stroke-width:0.529167;stroke-linecap:round"
     d="m 30.631441,75.38344 c 19.500088,6.553335 22.677868,13.879254 41.765621,8.739504 -6.614171,5.212413 -17.481078,4.197039 -17.481078,4.197039 0,0 -20.724761,-9.308148 -29.333881,6.869063 1.643745,-6.905591 2.862351,-11.187666 5.049338,-19.805606 z"
     id="path497" /><path
     style="fill:#a8a8a8;stroke:#a8a8a8;stroke-width:0.529167;stroke-linecap:round"
     d="m 146.55143,49.448302 c 6.37887,6.082233 10.36866,21.732622 21.42457,28.551406 -10.89784,-1.213068 -14.27885,-9.822997 -14.27885,-9.822997 0,0 -8.47794,-14.155705 -21.11304,-16.420677 4.678,-1.372538 6.28122,-6.089716 13.96732,-2.307732 z"
     id="path499" /><path
     style="fill:#171717;fill-opacity:1;stroke:#171717;stroke-width:0.264583;stroke-linecap:round;stroke-dasharray:none"
     d="M 24.953603,41.053007 C 48.571098,6.8534434 146.61172,21.20136 146.61172,21.20136 l -26.60619,20.656584 -56.297932,0.297934 c 0,0 -17.770725,-3.233039 -38.753995,-1.102871 z"
     id="path1095" /><path
     style="fill:url(#linearGradient1049);stroke:#f4e190;stroke-width:1.71499997;stroke-linecap:round;stroke-dasharray:none;fill-opacity:1"
     d="M 351.52404,717.74746 C 268.16558,714.56083 188.36463,679.89865 129.36515,621.25098 109.05956,601.06647 94.139902,581.1895 80.091823,555.60577 64.847702,527.84386 51.042744,489.17838 44.504403,455.93109 c -1.682255,-8.55421 -1.805307,-13.37977 -2.020474,-79.23397 -0.20424,-62.50986 -0.05223,-71.78471 1.399845,-85.40866 5.180411,-48.6048 14.224488,-72.43398 35.674827,-93.99544 36.881299,-37.07235 105.074509,-48.97542 165.273039,-28.84829 20.40431,6.8221 37.38629,16.58159 48.73553,28.00814 23.73121,23.89287 21.85363,55.42518 -4.79611,80.54627 -15.27495,14.39877 -35.62431,23.11278 -56.81914,24.33113 -16.50863,0.94896 -29.22918,-2.67646 -57.88574,-16.49776 -30.75673,-14.83423 -41.10814,-18.06943 -60.33781,-18.85784 -20.428449,-0.83756 -32.116692,2.91176 -41.936665,13.4523 -5.024225,5.39288 -8.243954,10.09859 -7.436889,10.86919 0.206774,0.19743 6.039896,-0.60618 12.962492,-1.7858 6.922596,-1.17962 12.855762,-2.04854 13.184811,-1.93093 0.32905,0.11762 -1.997112,8.30519 -5.16925,18.19461 -12.663781,39.48046 -14.0908,57.79929 -5.815042,74.64839 3.319199,6.75775 8.670986,13.16435 9.364139,11.20978 0.263031,-0.74171 1.970039,-7.21478 3.793351,-14.38461 2.916658,-11.46922 3.878985,-13.90053 8.006493,-20.22837 6.25701,-9.59255 16.1523,-18.8564 24.7351,-23.15672 10.84346,-5.43299 19.02699,-7.19601 33.7129,-7.26296 14.6223,-0.0667 22.98511,1.33268 39.71776,6.64599 12.1883,3.87028 15.02973,4.11755 30.08722,2.6183 16.08809,-1.60188 29.78121,-5.74771 40.60973,-12.29531 3.36659,-2.03565 5.05849,-3.60042 4.75318,-4.39602 -0.3246,-0.84592 2.11923,-2.53556 7.75248,-5.36001 16.04195,-8.04326 29.87296,-19.11358 38.12401,-30.51442 4.45397,-6.15425 9.89841,-17.86325 11.53563,-24.8089 1.73049,-7.34138 1.76619,-25.14004 0.0756,-37.67428 -2.55978,-18.97789 -7.83782,-30.71615 -18.69528,-41.57782 l -6.96754,-6.97025 2.92187,-0.002 c 1.60703,-9.9e-4 14.85661,-0.85317 29.44351,-1.89379 15.37791,-1.09705 36.53211,-1.94626 50.34615,-2.02108 22.49335,-0.12184 24.62798,0.0133 38.20428,2.41882 19.60098,3.47299 29.67598,3.22345 38.49459,-0.95345 7.99601,-3.78727 15.3665,-10.92892 27.13525,-26.29272 11.08921,-14.47663 17.05264,-20.73104 24.14901,-25.32727 22.28509,-14.4338 61.12029,-16.89239 109.36303,-6.92359 15.37695,3.17747 22.80674,6.08484 33.74484,13.20479 35.56499,23.15036 63.411,67.03045 63.33802,99.80887 -0.0494,22.15411 -13.4878,40.41526 -37.04616,50.34089 -4.99999,2.10661 -6.82601,2.37831 -15.98382,2.37831 -11.76282,0 -15.28263,-1.11438 -26.3403,-8.33936 -12.29522,-8.03359 -22.14479,-19.28803 -47.91713,-54.75167 -27.46439,-37.79198 -41.57985,-50.32787 -58.6822,-52.11541 -11.02015,-1.15184 -23.72568,4.621 -35.44696,16.10554 -6.91604,6.77635 -16.81533,19.31075 -16.81533,21.29143 0,1.3476 6.1081,0.66261 11.70731,-1.31291 1.90633,-0.67259 3.59201,-0.94579 3.74597,-0.60711 0.15394,0.33868 3.11186,1.34494 6.57316,2.23613 26.46433,6.81387 57.35532,33.48469 75.16428,64.89575 4.75452,8.38593 16.89262,20.01292 25.52803,24.45311 8.3824,4.31011 17.54837,7.29537 24.12068,7.85587 2.5567,0.21804 7.27824,1.5835 10.4923,3.03435 3.21406,1.45086 10.80799,4.17649 16.87539,6.05698 l 11.03165,3.41906 5.78186,9.96124 c 16.88801,29.09533 27.58366,59.80246 30.10225,86.42332 1.39257,14.71925 -0.89035,37.6543 -5.83916,58.66229 -9.41925,39.98526 -30.38047,85.30844 -56.32906,121.79697 -21.61373,30.39291 -48.03209,55.53884 -69.88656,66.5205 l -7.57853,3.80815 -10.40224,-0.0145 c -8.99324,-0.0125 -11.29541,-0.33877 -16.99632,-2.40872 -14.14642,-5.13641 -25.04825,-14.0985 -30.02826,-24.68539 -2.50541,-5.32617 -2.88304,-7.06463 -2.80186,-12.89863 0.17167,-12.33761 5.60179,-25.15532 23.23305,-54.84135 4.8457,-8.15877 11.47758,-20.25357 14.7375,-26.87734 5.35617,-10.88306 5.95877,-12.66983 6.25562,-18.54822 0.39035,-7.73011 -1.26408,-12.09081 -5.57195,-14.68644 -6.50231,-3.91784 -12.93955,-3.32324 -33.17258,3.06411 -6.89275,2.17596 -26.75404,7.25494 -44.13619,11.28663 -45.96047,10.66023 -63.43071,16.04338 -81.6071,25.14582 -10.04895,5.03235 -14.60111,8.94596 -15.90704,13.67566 -3.20946,11.6237 8.90676,22.48255 45.05863,40.3826 25.76878,12.75903 35.60603,18.77571 43.80602,26.79276 14.50661,14.18297 17.06164,28.48831 8.82348,49.40163 -7.39438,18.77132 -19.68047,32.20073 -36.07048,39.42712 -15.76116,6.94913 -41.88761,9.59792 -80.21706,8.13265 z m -71.6541,-173.46982 c 10.49154,-2.76058 16.18672,-6.14065 23.44875,-13.91678 7.81009,-8.36296 12.75412,-16.50022 15.52411,-25.55076 1.71127,-5.59131 2.05837,-8.73869 2.03254,-18.43029 -0.0266,-9.99555 -1.24285,-22.46498 -2.68102,-27.48786 -0.24239,-0.84655 0.46259,-1.88025 1.75349,-2.57112 10.26517,-5.49376 0.0679,-24.33081 -14.41699,-26.63201 -4.69418,-0.74576 -23.51256,3.14516 -63.05418,13.0372 -40.22039,10.06184 -66.10984,16.21489 -83.02779,19.73292 -25.46023,5.29437 -39.78683,12.98698 -39.78683,21.36337 0,6.07063 8.08713,10.62221 24.02232,13.52018 12.38953,2.25317 38.0401,2.00474 53.08984,-0.51418 6.36474,-1.06529 11.877,-2.12524 12.24948,-2.35544 0.37248,-0.23021 0.94512,1.25668 1.27253,3.30417 0.83236,5.20531 5.40887,15.84893 9.60852,22.3466 14.30117,22.12671 35.38859,30.62072 59.96523,24.154 z m 330.13104,-90.7741 c 25.69061,-7.11924 36.07061,-23.32528 34.79873,-54.33046 -0.2637,-6.42813 -1.1265,-14.66788 -1.91734,-18.31056 l -1.43788,-6.62305 3.15636,-3.49372 c 3.75184,-4.15284 4.19738,-8.71192 1.38929,-14.21622 -3.55369,-6.96582 -14.14937,-13.76037 -21.60793,-13.85624 -2.22512,-0.0286 -34.38822,6.92795 -71.47356,15.45899 -37.08533,8.53104 -70.25985,16.13997 -73.72115,16.90873 -14.51677,3.22419 -26.98808,9.6206 -29.63556,15.19974 -1.41028,2.97193 -1.40248,3.34968 0.13399,6.49343 2.02132,4.13579 10.07038,8.44918 20.06167,10.75078 10.01952,2.30811 44.34554,2.11952 57.67157,-0.31685 l 9.57302,-1.7502 1.5033,5.40704 c 3.1524,11.33857 11.61989,24.10938 20.93856,31.57987 5.97113,4.78688 16.39767,10.07755 23.03395,11.68797 7.44999,1.80788 19.83949,1.54272 27.53298,-0.58925 z"
     id="path1041"
     transform="scale(0.26458334)" /></svg>
