<?xml version="1.0" encoding="UTF-8" standalone="no"?>
<svg
   width="202"
   height="202"
   viewBox="0 0 202 202"
   version="1.1"
   preserveAspectRatio="xMidYMid"
   id="svg6"
   xmlns="http://www.w3.org/2000/svg"
   xmlns:svg="http://www.w3.org/2000/svg">
  <defs
     id="defs6" />
  <circle
     fill="#abc2ab"
     cx="100.53291"
     cy="103.34162"
     r="72.897652"
     id="circle2"
     style="stroke-width:2.17583;fill:#bebebe;fill-opacity:1" />
  <path
     d="m 137.87956,143.26567 c -1.29447,1.64814 -6.89031,6.87521 -7.77541,7.77296 l -4.05253,4.11053 c -0.53875,0.54645 -1.78871,-2.80676 -2.53831,-6.11166 -0.14963,-0.65977 -1.51299,-4.94776 -1.74415,-5.77183 L 98.330072,65.637167 c -0.09252,-0.164819 -0.138687,-0.370834 -0.138687,-0.618043 v -0.741688 c 0,-0.824078 0.161808,-1.483346 0.485424,-1.977804 0.369839,-0.57685 0.947778,-0.851905 1.733661,-0.865273 l 22.67845,-0.385715 c 1.52553,-0.02594 3.27909,5.066947 3.74139,6.715104 l 15.43673,51.111362 44.47968,-54.968518 c 1.34071,-1.648157 2.75091,-2.439385 4.23015,-2.472233 l 8.68482,-0.192858 c 0.60096,-0.01337 0.31422,3.425941 -2.26311,7.338322 -0.87799,1.332769 -3.15472,4.733877 -3.89442,5.805185 z"
     fill="#000000"
     id="path3"
     style="fill:#191919;fill-opacity:1;stroke:#191919;stroke-width:3.217;stroke-dasharray:none;stroke-opacity:1" />
  <path
     d="m 17.6459,134.48174 c -2.599926,0 -4.899855,-0.58741 -6.899789,-1.76225 -1.9999545,-1.24826 -3.6749137,-2.9371 -5.0248755,-5.0665 -1.349963,-2.12941 -2.3749295,-4.62593 -3.0748997,-7.48959 -0.6999702,-2.93711 -1.0499546,-6.0945 -1.0499546,-9.47218 0,-4.33222 0.4999837,-8.59102 1.4999499,-12.776372 0.9999663,-4.185377 2.3749283,-8.187179 4.1248861,-12.005421 1.7999363,-3.818234 3.8998678,-7.342754 6.2997958,-10.573558 2.449928,-3.23082 5.099853,-6.021068 7.949778,-8.370743 2.899922,-2.349674 5.949832,-4.185361 9.14973,-5.507064 3.199919,-1.395115 6.474827,-2.092673 9.824717,-2.092673 h 36.748919 c 2.649935,0 4.974866,0.587414 6.974828,1.762243 2.04993,1.174845 3.749872,2.826971 5.099836,4.956374 1.349964,2.055958 2.374936,4.515776 3.074902,7.379453 0.699991,2.863675 1.049992,5.984345 1.049992,9.362005 0,4.332237 -0.52499,8.627748 -1.574958,12.886546 -0.999987,4.185365 -2.399945,8.18718 -4.199884,12.00539 -1.799953,3.81823 -3.924897,7.37948 -6.374823,10.68373 -2.449925,3.23081 -5.124857,6.05776 -8.024771,8.48086 -2.899901,2.34969 -5.949819,4.2221 -9.149729,5.61722 -3.199897,1.3217 -6.424816,1.98253 -9.674731,1.98253 z M 62.794589,89.433937 c 1.649959,-5.139921 2.474945,-8.994861 2.474945,-11.564822 0,-2.129404 -0.525002,-3.597956 -1.574982,-4.405656 -0.999975,-0.807702 -2.499919,-1.211552 -4.499857,-1.211552 H 48.994986 c -1.44995,0 -2.799915,0.293706 -4.049892,0.881121 -1.199973,0.514001 -2.32493,1.431847 -3.374898,2.753533 -1.049968,1.321703 -2.074927,3.083971 -3.074902,5.286802 -0.949958,2.202819 -1.924923,4.956343 -2.924899,8.260574 l -3.599922,12.005413 c -1.899935,6.24135 -2.849902,10.94071 -2.849902,14.0981 0,2.1294 0.424984,3.67136 1.274953,4.62592 0.849989,0.88112 2.074953,1.32169 3.674892,1.32169 h 10.274711 c 1.549961,0 2.974927,-0.33042 4.274886,-0.99125 1.299971,-0.73429 2.549936,-1.87242 3.749897,-3.4144 1.199959,-1.54197 2.349926,-3.59794 3.449888,-6.16791 1.099973,-2.56995 2.224931,-5.72734 3.374897,-9.47215 z"
     fill="#000000"
     id="path4"
     style="fill:#191919;fill-opacity:1;stroke-width:1.47839" />
  <path
     d="m 74.013255,153.68026 c -0.42193,-0.008 -0.84963,-0.17593 -1.283112,-0.50692 -0.216735,-0.16554 -0.452489,-0.37174 -0.707299,-0.61876 L 47.820181,126.69869 c -0.657939,-0.71237 -0.682167,-1.0635 -0.07271,-1.05337 l 12.095307,0.20089 c 0.445365,0.008 0.902843,0.19036 1.372448,0.54886 0.21676,0.16554 0.404655,0.34395 0.563796,0.53548 l 24.23781,25.85645 c 0.69405,0.73995 0.736345,1.10483 0.126886,1.09472 z"
     fill="#000000"
     id="path5"
     style="fill:#191919;fill-opacity:1;stroke:#191919;stroke-width:4.06262;stroke-dasharray:none;stroke-opacity:1" />
</svg>
